<?xml version="1.0" standalone="no"?>
<!DOCTYPE svg PUBLIC "-//W3C//DTD SVG 20010904//EN"
 "http://www.w3.org/TR/2001/REC-SVG-20010904/DTD/svg10.dtd">
<svg version="1.0" xmlns="http://www.w3.org/2000/svg"
 width="840.000000pt" height="1132.000000pt" viewBox="0 0 840.000000 1132.000000"
 preserveAspectRatio="xMidYMid meet">

<g transform="translate(0.000000,1132.000000) scale(0.100000,-0.100000)"
fill="#000000" stroke="none">
<path d="M3327 10885 c-115 -22 -285 -93 -337 -141 -2 -3 -7 -33 -11 -68 -12
-116 -54 -187 -234 -385 -58 -64 -125 -143 -150 -176 -59 -78 -121 -204 -142
-285 -19 -77 -22 -270 -4 -344 11 -47 11 -50 -15 -77 -34 -35 -157 -100 -244
-127 -36 -12 -148 -42 -250 -68 -279 -70 -381 -114 -471 -204 -43 -43 -91
-127 -103 -180 l-5 -25 147 -1 c179 -1 274 -16 587 -94 132 -32 272 -64 310
-71 80 -14 260 -17 355 -7 l65 8 0 -59 c0 -75 16 -97 124 -174 44 -32 81 -63
81 -68 0 -6 -22 -31 -49 -55 -143 -129 -212 -313 -292 -781 -23 -137 -49 -277
-58 -311 l-16 -64 -72 -28 c-199 -76 -322 -180 -554 -465 -53 -66 -111 -136
-127 -155 l-30 -35 -88 22 c-178 44 -215 39 -293 -38 -68 -67 -77 -103 -57
-224 9 -51 16 -113 16 -137 l0 -45 -85 -38 c-118 -52 -281 -161 -353 -234
-144 -148 -174 -299 -91 -466 48 -99 49 -99 213 -106 109 -4 150 -10 179 -24
20 -10 37 -25 37 -32 0 -25 100 -1238 120 -1458 96 -1037 223 -1737 430 -2356
69 -208 168 -451 191 -471 56 -48 292 -119 461 -137 277 -30 532 -5 1203 120
390 73 587 104 786 124 173 17 491 20 624 5 109 -12 297 -48 308 -59 4 -4 -13
-51 -39 -104 -36 -75 -46 -107 -46 -146 0 -58 26 -109 60 -118 32 -8 172 3
356 27 81 11 182 20 223 20 138 0 302 -48 407 -118 l45 -31 38 56 c114 167
326 208 646 128 54 -14 99 -25 100 -25 1 0 2 53 3 118 0 85 8 153 27 250 15
72 27 137 27 142 0 6 -25 21 -55 34 -211 94 -346 277 -408 551 -24 107 -45
286 -62 540 -50 738 -88 888 -375 1475 -159 326 -177 376 -205 573 -21 147
-21 475 1 830 9 156 14 355 12 469 l-4 196 26 -18 c14 -10 92 -82 173 -159
181 -173 278 -251 369 -297 99 -50 177 -68 270 -61 136 9 234 70 288 180 51
104 63 186 57 397 -5 196 -17 291 -91 736 -63 382 -80 545 -73 734 10 277 33
316 228 390 190 73 211 101 217 286 l4 121 -38 24 c-28 17 -58 25 -104 27 -58
4 -79 -1 -175 -37 -138 -53 -180 -59 -230 -36 l-37 18 7 51 c7 60 31 116 85
206 50 83 58 134 33 215 -17 55 -21 60 -58 72 -135 40 -212 -5 -387 -228 -82
-104 -133 -149 -200 -178 -91 -40 -93 -40 -215 94 -327 358 -630 552 -932 596
-158 22 -361 -2 -512 -61 -27 -11 -54 -20 -60 -20 -6 0 19 55 55 123 75 141
96 211 96 317 l0 75 101 22 c237 52 418 188 583 438 29 44 106 177 171 295 65
118 144 255 176 304 33 49 57 91 55 94 -10 9 -218 -19 -308 -42 -53 -13 -201
-66 -328 -116 -127 -50 -275 -103 -328 -116 -73 -19 -254 -43 -324 -44 -4 0
-33 35 -64 78 -168 228 -465 453 -749 566 -210 83 -460 115 -638 81z m-1695
-5850 c149 -228 380 -408 641 -500 53 -19 77 -33 77 -44 0 -9 -9 -61 -19 -116
-119 -613 -203 -1356 -316 -2805 -9 -107 -18 -215 -22 -240 l-6 -45 -23 90
c-97 371 -158 902 -194 1690 -52 1135 -87 1518 -179 1963 -10 52 -16 90 -12
85 4 -4 28 -40 53 -78z m976 -3787 c-9 -27 -132 -97 -225 -127 -104 -35 -241
-50 -303 -34 -33 8 -37 14 -59 81 -13 40 -22 75 -19 77 3 3 22 -2 44 -11 52
-23 172 -21 294 4 111 24 274 29 268 10z"/>
<path d="M805 9825 c-3 -14 -7 -36 -10 -50 -3 -14 -3 -25 0 -25 3 0 180 -29
393 -64 213 -36 400 -66 416 -68 28 -3 31 0 39 40 5 24 7 45 5 47 -2 2 -181
34 -398 70 -217 36 -405 67 -417 70 -18 4 -24 0 -28 -20z"/>
</g>
</svg>
